[CENTER][CENTER][IMG]http://i1131.photobucket.com/albums/m550/technosusovan/infooi-1.png[/IMG][/CENTER]
                             [IMG]http://www.************.com/forums/images/styles/************/misc/q.gif[/IMG]  Quote:
                 [CENTER]General
Complete name                    : Desi Virgin Girl First Time Sex With BF.flv
Format                           : Flash Video
File size                        : 100 MiB
Duration                         : 26mn 39s
Overall bit rate                 : 526 Kbps
Tagging application              : Yet Another Metadata Injector for FLV - Version 1.2

Video
Format                           : Sorenson Spark
Codec ID                         : 2
Duration                         : 26mn 39s
Bit rate                         : 382 Kbps
Width                            : 320 pixels
Height                           : 240 pixels
Display aspect ratio             : 4:3
Frame rate mode                  : Constant
Frame rate                       : 16.001 fps
Bit depth                        : 8 bits
Bits/(Pixel*Frame)               : 0.311
Stream size                      : 74.8 MiB (75%)

Audio
Format                           : MPEG Audio
Format version                   : Version 1
Format profile                   : Layer 3
Codec ID                         : 2
Codec ID/Hint                    : MP3
Duration                         : 26mn 38s
Bit rate mode                    : Constant
Bit rate                         : 128 Kbps
Channel(s)                       : 1 channel
Sampling rate                    : 44.1 KHz
Compression mode                 : Lossy
Stream size                      : 25.1 MiB (25%)
Writing library                  : LAME3.98.4

[/CENTER]

              
 
[IMG]http://i1131.photobucket.com/albums/m550/technosusovan/screenshotsoriginal.gif[/IMG]
[IMG]http://i1131.photobucket.com/albums/m550/technosusovan/vlcsnap-2011-12-24-22h02m31s86.png[/IMG]
[IMG]http://i1131.photobucket.com/albums/m550/technosusovan/vlcsnap-2011-12-24-22h02m38s159.png[/IMG]
[IMG]http://i1131.photobucket.com/albums/m550/technosusovan/vlcsnap-2011-12-24-22h02m55s75.png[/IMG]
[IMG]http://i1131.photobucket.com/albums/m550/technosusovan/vlcsnap-2011-12-24-22h03m03s149.png[/IMG]
[IMG]http://i1131.photobucket.com/albums/m550/technosusovan/vlcsnap-2011-12-24-22h03m09s217.png[/IMG][/CENTER]